<svg width="158" height="57" viewBox="0 0 158 57" fill="none" xmlns="http://www.w3.org/2000/svg">
<path d="M60.7603 31.9195C56.8514 29.8644 51.9898 27.3011 44.7704 29.7195C37.551 32.1378 35.1724 37.1403 33.2649 41.1785C31.5367 44.8266 30.5551 46.6048 27.5095 47.6528C24.4639 48.7008 22.5936 47.8014 18.9781 45.9087C15.0692 43.8535 10.2075 41.2903 2.98811 43.7086C2.68001 43.8153 2.3844 43.9282 2.09295 44.0328C1.01875 44.4344 0.397767 45.4279 0.680122 46.2892L2.17914 50.8061C2.26609 51.0434 2.40942 51.2558 2.59675 51.425C2.78409 51.5942 3.00978 51.7151 3.25434 51.7771C3.81261 51.9371 4.40907 51.9005 4.94433 51.6733C5.14836 51.5876 5.35237 51.5123 5.57927 51.4432C8.64356 50.4202 10.4868 51.2904 14.0816 53.1623C17.9904 55.2279 22.8563 57.8037 30.1007 55.377C37.3451 52.9503 39.6841 47.9749 41.5915 43.9471C43.3177 40.2824 44.2868 38.4771 47.3657 37.4457C50.4446 36.4143 52.2774 37.295 55.8638 39.1731C59.7727 41.2283 64.6385 43.7936 71.8704 41.3711C79.1024 38.9486 81.4539 33.9691 83.3634 29.9371C85.0916 26.2786 86.0566 24.4712 89.1334 23.4336C92.2102 22.396 94.0618 23.2599 97.6586 25.1589C101.565 27.2183 106.431 29.7836 113.651 27.3653C120.87 24.9469 123.253 19.9465 125.142 15.9354C126.872 12.2728 127.841 10.4674 130.92 9.43607C133.999 8.40472 135.827 9.28328 139.424 11.151C143.331 13.2208 148.197 15.7965 155.441 13.3698C156.565 12.9933 157.238 11.9684 156.948 11.0821L155.455 6.58398C155.16 5.69562 154.022 5.28784 152.885 5.65815C149.813 6.68741 147.978 5.81095 144.356 3.92031C140.445 1.85888 135.583 -0.704365 128.362 1.71815C121.14 4.14067 118.76 9.13689 116.871 13.148C115.137 16.819 114.172 18.6264 111.101 19.6515C108.031 20.6766 106.202 19.8085 102.601 17.9282C98.6961 15.8647 93.8303 13.2889 86.5901 15.7177C79.3499 18.1465 77.0088 23.1156 75.0846 27.1768C73.3564 30.8353 72.3935 32.6385 69.3188 33.6824C66.2441 34.7263 64.3717 33.8311 60.7603 31.9195Z" fill="#8F949E"/>
</svg>
