<svg width="103" height="103" viewBox="0 0 103 103" fill="none" xmlns="http://www.w3.org/2000/svg">
<path d="M51.2035 1.03613C44.5717 1.0361 38.0048 2.34229 31.8778 4.88013C25.7508 7.41798 20.1837 11.1378 15.4943 15.8271C10.8049 20.5165 7.08508 26.0836 4.5472 32.2106C2.00933 38.3375 0.703107 44.9044 0.703125 51.5361C0.703106 58.1679 2.00932 64.7347 4.5472 70.8617C7.08508 76.9887 10.8049 82.5558 15.4943 87.2451C20.1837 91.9345 25.7508 95.6543 31.8778 98.1921C38.0048 100.73 44.5717 102.036 51.2035 102.036C64.5969 102.036 77.4417 96.7155 86.9122 87.2449C96.3827 77.7743 101.703 64.9295 101.703 51.5361C101.703 38.1428 96.3827 25.298 86.9122 15.8274C77.4417 6.35682 64.5969 1.03625 51.2035 1.03613ZM50.8585 6.20304C62.89 6.20304 74.4282 10.9614 82.9351 19.4307C91.4419 27.8999 96.2206 39.3861 96.2207 51.3624C96.2206 63.3388 91.4419 74.825 82.9351 83.2942C74.4282 91.7635 62.89 96.5219 50.8585 96.5219C38.827 96.5219 27.2888 91.7635 18.7819 83.2942C10.2751 74.825 5.49639 63.3388 5.49635 51.3624C5.4964 39.3861 10.2751 27.8999 18.7819 19.4307C27.2888 10.9614 38.827 6.20303 50.8585 6.20304Z" fill="#1E1E1E"/>
<path d="M51.2035 1.03613C44.5717 1.0361 38.0048 2.34229 31.8778 4.88013C25.7508 7.41798 20.1837 11.1378 15.4943 15.8271C10.8049 20.5165 7.08508 26.0836 4.5472 32.2106C2.00933 38.3375 0.703107 44.9044 0.703125 51.5361C0.703106 58.1679 2.00932 64.7347 4.5472 70.8617C7.08508 76.9887 10.8049 82.5558 15.4943 87.2451C20.1837 91.9345 25.7508 95.6543 31.8778 98.1921C38.0048 100.73 44.5717 102.036 51.2035 102.036C64.5969 102.036 77.4417 96.7155 86.9122 87.2449C96.3827 77.7743 101.703 64.9295 101.703 51.5361C101.703 38.1428 96.3827 25.298 86.9122 15.8274C77.4417 6.35682 64.5969 1.03625 51.2035 1.03613ZM50.8585 6.20304C62.89 6.20304 74.4282 10.9614 82.9351 19.4307C91.4419 27.8999 96.2206 39.3861 96.2207 51.3624C96.2206 63.3388 91.4419 74.825 82.9351 83.2942C74.4282 91.7635 62.89 96.5219 50.8585 96.5219C38.827 96.5219 27.2888 91.7635 18.7819 83.2942C10.2751 74.825 5.49639 63.3388 5.49635 51.3624C5.4964 39.3861 10.2751 27.8999 18.7819 19.4307C27.2888 10.9614 38.827 6.20303 50.8585 6.20304Z" fill="black" fill-opacity="0.2"/>
<path d="M51.2035 1.03613C44.5717 1.0361 38.0048 2.34229 31.8778 4.88013C25.7508 7.41798 20.1837 11.1378 15.4943 15.8271C10.8049 20.5165 7.08508 26.0836 4.5472 32.2106C2.00933 38.3375 0.703107 44.9044 0.703125 51.5361C0.703106 58.1679 2.00932 64.7347 4.5472 70.8617C7.08508 76.9887 10.8049 82.5558 15.4943 87.2451C20.1837 91.9345 25.7508 95.6543 31.8778 98.1921C38.0048 100.73 44.5717 102.036 51.2035 102.036C64.5969 102.036 77.4417 96.7155 86.9122 87.2449C96.3827 77.7743 101.703 64.9295 101.703 51.5361C101.703 38.1428 96.3827 25.298 86.9122 15.8274C77.4417 6.35682 64.5969 1.03625 51.2035 1.03613ZM50.8585 6.20304C62.89 6.20304 74.4282 10.9614 82.9351 19.4307C91.4419 27.8999 96.2206 39.3861 96.2207 51.3624C96.2206 63.3388 91.4419 74.825 82.9351 83.2942C74.4282 91.7635 62.89 96.5219 50.8585 96.5219C38.827 96.5219 27.2888 91.7635 18.7819 83.2942C10.2751 74.825 5.49639 63.3388 5.49635 51.3624C5.4964 39.3861 10.2751 27.8999 18.7819 19.4307C27.2888 10.9614 38.827 6.20303 50.8585 6.20304Z" stroke="#1E1E1E"/>
<path d="M51.2035 1.03613C44.5717 1.0361 38.0048 2.34229 31.8778 4.88013C25.7508 7.41798 20.1837 11.1378 15.4943 15.8271C10.8049 20.5165 7.08508 26.0836 4.5472 32.2106C2.00933 38.3375 0.703107 44.9044 0.703125 51.5361C0.703106 58.1679 2.00932 64.7347 4.5472 70.8617C7.08508 76.9887 10.8049 82.5558 15.4943 87.2451C20.1837 91.9345 25.7508 95.6543 31.8778 98.1921C38.0048 100.73 44.5717 102.036 51.2035 102.036C64.5969 102.036 77.4417 96.7155 86.9122 87.2449C96.3827 77.7743 101.703 64.9295 101.703 51.5361C101.703 38.1428 96.3827 25.298 86.9122 15.8274C77.4417 6.35682 64.5969 1.03625 51.2035 1.03613ZM50.8585 6.20304C62.89 6.20304 74.4282 10.9614 82.9351 19.4307C91.4419 27.8999 96.2206 39.3861 96.2207 51.3624C96.2206 63.3388 91.4419 74.825 82.9351 83.2942C74.4282 91.7635 62.89 96.5219 50.8585 96.5219C38.827 96.5219 27.2888 91.7635 18.7819 83.2942C10.2751 74.825 5.49639 63.3388 5.49635 51.3624C5.4964 39.3861 10.2751 27.8999 18.7819 19.4307C27.2888 10.9614 38.827 6.20303 50.8585 6.20304Z" stroke="black" stroke-opacity="0.2"/>
<path d="M76.2365 42.3567H47.4707C44.7341 42.3567 42.5156 44.0374 42.5156 46.1106C42.5156 48.1838 44.7341 49.8645 47.4707 49.8645H76.2365C78.973 49.8645 81.1915 48.1838 81.1915 46.1106C81.1915 44.0374 78.973 42.3567 76.2365 42.3567Z" fill="#1E1E1E"/>
<path d="M76.2365 42.3567H47.4707C44.7341 42.3567 42.5156 44.0374 42.5156 46.1106C42.5156 48.1838 44.7341 49.8645 47.4707 49.8645H76.2365C78.973 49.8645 81.1915 48.1838 81.1915 46.1106C81.1915 44.0374 78.973 42.3567 76.2365 42.3567Z" fill="black" fill-opacity="0.2"/>
<path d="M39.2761 42.3567H23.3456C21.8301 42.3567 20.6016 44.0374 20.6016 46.1106C20.6016 48.1838 21.8301 49.8645 23.3456 49.8645H39.2761C40.7916 49.8645 42.0202 48.1838 42.0202 46.1106C42.0202 44.0374 40.7916 42.3567 39.2761 42.3567Z" fill="#1E1E1E"/>
<path d="M39.2761 42.3567H23.3456C21.8301 42.3567 20.6016 44.0374 20.6016 46.1106C20.6016 48.1838 21.8301 49.8645 23.3456 49.8645H39.2761C40.7916 49.8645 42.0202 48.1838 42.0202 46.1106C42.0202 44.0374 40.7916 42.3567 39.2761 42.3567Z" fill="black" fill-opacity="0.2"/>
<path d="M81.308 51.011H20.6016V63.6283H81.308V51.011Z" fill="#1E1E1E"/>
<path d="M81.308 51.011H20.6016V63.6283H81.308V51.011Z" fill="black" fill-opacity="0.2"/>
<path d="M17.6946 34.5352H16.9094C15.8419 34.5352 14.9766 35.2724 14.9766 36.1819V66.1522C14.9766 67.0616 15.8419 67.7989 16.9094 67.7989H17.6946C18.7621 67.7989 19.6275 67.0616 19.6275 66.1522V36.1819C19.6275 35.2724 18.7621 34.5352 17.6946 34.5352Z" fill="#1E1E1E"/>
<path d="M17.6946 34.5352H16.9094C15.8419 34.5352 14.9766 35.2724 14.9766 36.1819V66.1522C14.9766 67.0616 15.8419 67.7989 16.9094 67.7989H17.6946C18.7621 67.7989 19.6275 67.0616 19.6275 66.1522V36.1819C19.6275 35.2724 18.7621 34.5352 17.6946 34.5352Z" fill="black" fill-opacity="0.2"/>
<path d="M85.136 34.4312H84.3508C83.2833 34.4312 82.418 35.1684 82.418 36.0779V66.0482C82.418 66.9576 83.2833 67.6949 84.3508 67.6949H85.136C86.2035 67.6949 87.0689 66.9576 87.0689 66.0482V36.0779C87.0689 35.1684 86.2035 34.4312 85.136 34.4312Z" fill="#1E1E1E"/>
<path d="M85.136 34.4312H84.3508C83.2833 34.4312 82.418 35.1684 82.418 36.0779V66.0482C82.418 66.9576 83.2833 67.6949 84.3508 67.6949H85.136C86.2035 67.6949 87.0689 66.9576 87.0689 66.0482V36.0779C87.0689 35.1684 86.2035 34.4312 85.136 34.4312Z" fill="black" fill-opacity="0.2"/>
</svg>
