<svg width="30" height="18" viewBox="0 0 30 18" fill="none" xmlns="http://www.w3.org/2000/svg">
<path d="M12.8477 17.7019H0.226562V0.252686H12.8477V3.62769H4.70312V6.6394H12.2617V10.0144H4.70312V14.3269H12.8477V17.7019ZM29.6172 17.7019H25.375V11.1746C25.375 10.6433 25.3477 10.116 25.293 9.59253C25.2383 9.06128 25.1445 8.67065 25.0117 8.42065C24.8555 8.13159 24.625 7.92065 24.3203 7.78784C24.0234 7.65503 23.6055 7.58862 23.0664 7.58862C22.6836 7.58862 22.293 7.65112 21.8945 7.77612C21.5039 7.90112 21.0781 8.10034 20.6172 8.37378V17.7019H16.3984V4.54175H20.6172V5.99487C21.3672 5.40894 22.0859 4.95972 22.7734 4.64722C23.4688 4.33472 24.2383 4.17847 25.082 4.17847C26.5039 4.17847 27.6133 4.59253 28.4102 5.42065C29.2148 6.24878 29.6172 7.48706 29.6172 9.1355V17.7019Z" fill="white"/>
</svg>
