<svg width="101" height="101" viewBox="0 0 101 101" fill="none" xmlns="http://www.w3.org/2000/svg">
<path fill-rule="evenodd" clip-rule="evenodd" d="M30.179 0.354131C22.581 0.367553 12.9628 0.598976 11.7505 0.923758C6.2357 2.40119 1.73175 6.95315 0.458311 12.3365C0.193799 13.4547 0.121094 20.0186 0.121094 42.7005C0.121094 69.5288 0.154668 71.7589 0.582851 73.2999C2.16553 78.9957 6.62348 83.1587 12.4437 84.3762C13.742 84.6478 16.1014 84.7665 20.5063 84.7816L26.7329 84.8029V81.0228V77.2427L20.1127 77.24C13.704 77.2376 13.4502 77.218 12.1605 76.6209C10.451 75.8294 9.00803 74.3607 8.16104 72.55L7.49044 71.1163L7.49273 42.5701L7.49503 14.024L8.05565 12.7933C8.80062 11.1589 10.4135 9.45878 11.9674 8.66953L13.2304 8.02789L26.562 7.9494C32.741 7.91302 36.0481 7.90982 37.9492 7.96388C37.9638 7.96349 37.9781 7.96271 37.9929 7.96271H46.1915C46.3356 7.95405 46.4676 7.93714 46.6103 7.92994L49.8388 7.76724L48.0523 6.06751C44.4333 2.62428 42.1026 1.14598 39.4218 0.592614C38.5694 0.416663 34.7378 0.346076 30.179 0.354131Z" fill="#1E1E1E"/>
<path fill-rule="evenodd" clip-rule="evenodd" d="M30.179 0.354131C22.581 0.367553 12.9628 0.598976 11.7505 0.923758C6.2357 2.40119 1.73175 6.95315 0.458311 12.3365C0.193799 13.4547 0.121094 20.0186 0.121094 42.7005C0.121094 69.5288 0.154668 71.7589 0.582851 73.2999C2.16553 78.9957 6.62348 83.1587 12.4437 84.3762C13.742 84.6478 16.1014 84.7665 20.5063 84.7816L26.7329 84.8029V81.0228V77.2427L20.1127 77.24C13.704 77.2376 13.4502 77.218 12.1605 76.6209C10.451 75.8294 9.00803 74.3607 8.16104 72.55L7.49044 71.1163L7.49273 42.5701L7.49503 14.024L8.05565 12.7933C8.80062 11.1589 10.4135 9.45878 11.9674 8.66953L13.2304 8.02789L26.562 7.9494C32.741 7.91302 36.0481 7.90982 37.9492 7.96388C37.9638 7.96349 37.9781 7.96271 37.9929 7.96271H46.1915C46.3356 7.95405 46.4676 7.93714 46.6103 7.92994L49.8388 7.76724L48.0523 6.06751C44.4333 2.62428 42.1026 1.14598 39.4218 0.592614C38.5694 0.416663 34.7378 0.346076 30.179 0.354131Z" fill="black" fill-opacity="0.2"/>
<path fill-rule="evenodd" clip-rule="evenodd" d="M44.1806 99.894C42.1321 99.5972 41.1143 99.2606 39.0556 98.1987C36.2294 96.7411 33.4628 93.7187 32.1624 90.6684C30.9224 87.76 30.9357 88.1346 30.9316 56.0125C30.9273 22.4458 30.8337 24.3364 32.6946 20.4109C33.863 17.9462 36.8184 14.9297 39.1867 13.7846C42.6635 12.1036 43.0375 12.0686 57.5556 12.0686C71.487 12.0686 71.2439 12.05 73.5332 13.2948C75.5068 14.3679 78.0638 16.668 86.2089 24.697C95.1515 33.5122 97.9875 36.6547 99.2803 39.181L100.014 40.6148L100.092 63.6864C100.163 84.6682 100.13 86.9114 99.7266 88.4524C98.7538 92.1704 96.3692 95.5219 93.2669 97.5316C91.2 98.8706 89.1819 99.5747 86.4256 99.9183C83.8229 100.243 46.4395 100.221 44.1806 99.894ZM88.2885 91.8293C90.0096 90.9741 91.1428 89.8657 92.0813 88.1193L92.6729 87.0186V64.0332V41.0479L92.0174 40.3415C90.7051 38.9273 90.0956 38.8177 82.7097 38.6677C75.2714 38.5166 75.3258 38.528 74.0427 36.8495C73.577 36.2403 73.5211 35.5883 73.3927 29.2745C73.243 21.9085 73.1161 21.1531 71.8374 20.0198C71.2652 19.5127 70.8782 19.4984 57.7087 19.4984H44.1682L42.8573 20.1928C41.21 21.0654 39.765 22.5433 39.0757 24.0606C38.5496 25.2186 38.5427 25.6306 38.5395 55.9958L38.5363 86.7579L39.147 88.0614C39.9488 89.7726 41.3805 91.2066 43.0668 91.9872L44.4304 92.6185L65.5601 92.6211L86.6899 92.6237L88.2885 91.8293Z" fill="#1E1E1E"/>
<path fill-rule="evenodd" clip-rule="evenodd" d="M44.1806 99.894C42.1321 99.5972 41.1143 99.2606 39.0556 98.1987C36.2294 96.7411 33.4628 93.7187 32.1624 90.6684C30.9224 87.76 30.9357 88.1346 30.9316 56.0125C30.9273 22.4458 30.8337 24.3364 32.6946 20.4109C33.863 17.9462 36.8184 14.9297 39.1867 13.7846C42.6635 12.1036 43.0375 12.0686 57.5556 12.0686C71.487 12.0686 71.2439 12.05 73.5332 13.2948C75.5068 14.3679 78.0638 16.668 86.2089 24.697C95.1515 33.5122 97.9875 36.6547 99.2803 39.181L100.014 40.6148L100.092 63.6864C100.163 84.6682 100.13 86.9114 99.7266 88.4524C98.7538 92.1704 96.3692 95.5219 93.2669 97.5316C91.2 98.8706 89.1819 99.5747 86.4256 99.9183C83.8229 100.243 46.4395 100.221 44.1806 99.894ZM88.2885 91.8293C90.0096 90.9741 91.1428 89.8657 92.0813 88.1193L92.6729 87.0186V64.0332V41.0479L92.0174 40.3415C90.7051 38.9273 90.0956 38.8177 82.7097 38.6677C75.2714 38.5166 75.3258 38.528 74.0427 36.8495C73.577 36.2403 73.5211 35.5883 73.3927 29.2745C73.243 21.9085 73.1161 21.1531 71.8374 20.0198C71.2652 19.5127 70.8782 19.4984 57.7087 19.4984H44.1682L42.8573 20.1928C41.21 21.0654 39.765 22.5433 39.0757 24.0606C38.5496 25.2186 38.5427 25.6306 38.5395 55.9958L38.5363 86.7579L39.147 88.0614C39.9488 89.7726 41.3805 91.2066 43.0668 91.9872L44.4304 92.6185L65.5601 92.6211L86.6899 92.6237L88.2885 91.8293Z" fill="black" fill-opacity="0.2"/>
<path fill-rule="evenodd" clip-rule="evenodd" d="M52.9506 84.0688C51.0772 83.5531 48.6871 81.5879 47.6594 79.718C46.424 77.4704 46.5383 74.0133 47.9343 71.4027C48.8647 69.6628 58.418 60.064 60.0296 59.2497C62.5294 57.9868 64.986 57.6649 67.1087 58.322C69.892 59.1836 71.4238 60.5125 71.3806 62.0279C71.3226 64.0626 69.1795 64.7487 67.3102 63.3311C66.7776 62.9271 65.8645 62.533 65.2811 62.4552C63.2413 62.1831 62.3839 62.7675 57.0706 68.0513C54.3662 70.7407 51.9733 73.2878 51.7531 73.7116C51.0429 75.0781 51.0235 76.4702 51.6985 77.6259C53.3561 80.4637 56.5019 80.6294 59.3398 78.0283C60.5035 76.9618 60.526 76.9541 61.3084 77.3564C61.7437 77.5802 62.8855 77.8515 63.8456 77.9592L65.5914 78.155L63.1971 80.4536C60.1795 83.3505 58.6893 84.0925 55.7036 84.1845C54.5499 84.2201 53.3111 84.1681 52.9506 84.0688Z" fill="#1E1E1E"/>
<path fill-rule="evenodd" clip-rule="evenodd" d="M52.9506 84.0688C51.0772 83.5531 48.6871 81.5879 47.6594 79.718C46.424 77.4704 46.5383 74.0133 47.9343 71.4027C48.8647 69.6628 58.418 60.064 60.0296 59.2497C62.5294 57.9868 64.986 57.6649 67.1087 58.322C69.892 59.1836 71.4238 60.5125 71.3806 62.0279C71.3226 64.0626 69.1795 64.7487 67.3102 63.3311C66.7776 62.9271 65.8645 62.533 65.2811 62.4552C63.2413 62.1831 62.3839 62.7675 57.0706 68.0513C54.3662 70.7407 51.9733 73.2878 51.7531 73.7116C51.0429 75.0781 51.0235 76.4702 51.6985 77.6259C53.3561 80.4637 56.5019 80.6294 59.3398 78.0283C60.5035 76.9618 60.526 76.9541 61.3084 77.3564C61.7437 77.5802 62.8855 77.8515 63.8456 77.9592L65.5914 78.155L63.1971 80.4536C60.1795 83.3505 58.6893 84.0925 55.7036 84.1845C54.5499 84.2201 53.3111 84.1681 52.9506 84.0688Z" fill="black" fill-opacity="0.2"/>
<path fill-rule="evenodd" clip-rule="evenodd" d="M64.6169 73.8297C61.0424 73.3675 58.4357 71.0966 59.2462 69.1509C59.8818 67.6251 61.516 67.4146 63.2165 68.6394C64.1033 69.2782 64.5614 69.4215 65.7154 69.4215C66.6009 69.4215 67.4919 69.2336 68.1013 68.9183C69.3879 68.2527 78.7078 58.8932 79.4078 57.5637C80.1029 56.2436 80.1048 54.7646 79.4127 53.5546C78.6109 52.1526 77.7104 51.6038 76.034 51.4956C74.3041 51.3839 73.4981 51.7648 71.5843 53.5985L70.2771 54.8511L69.0201 54.4262C68.3288 54.1926 67.2027 53.9352 66.5178 53.8543C65.8328 53.7734 65.2724 53.6298 65.2724 53.5352C65.2724 53.2363 69.8079 49.0441 70.7725 48.4515C75.0319 45.8348 80.3701 46.8512 82.9302 50.7663C84.8031 53.6305 84.8965 56.6836 83.2137 60.0365C82.9619 60.5383 80.2674 63.4485 77.2259 66.5036C72.7368 71.0128 71.3989 72.2038 70.1177 72.8316C68.2723 73.736 66.4498 74.0667 64.6169 73.8297Z" fill="#1E1E1E"/>
<path fill-rule="evenodd" clip-rule="evenodd" d="M64.6169 73.8297C61.0424 73.3675 58.4357 71.0966 59.2462 69.1509C59.8818 67.6251 61.516 67.4146 63.2165 68.6394C64.1033 69.2782 64.5614 69.4215 65.7154 69.4215C66.6009 69.4215 67.4919 69.2336 68.1013 68.9183C69.3879 68.2527 78.7078 58.8932 79.4078 57.5637C80.1029 56.2436 80.1048 54.7646 79.4127 53.5546C78.6109 52.1526 77.7104 51.6038 76.034 51.4956C74.3041 51.3839 73.4981 51.7648 71.5843 53.5985L70.2771 54.8511L69.0201 54.4262C68.3288 54.1926 67.2027 53.9352 66.5178 53.8543C65.8328 53.7734 65.2724 53.6298 65.2724 53.5352C65.2724 53.2363 69.8079 49.0441 70.7725 48.4515C75.0319 45.8348 80.3701 46.8512 82.9302 50.7663C84.8031 53.6305 84.8965 56.6836 83.2137 60.0365C82.9619 60.5383 80.2674 63.4485 77.2259 66.5036C72.7368 71.0128 71.3989 72.2038 70.1177 72.8316C68.2723 73.736 66.4498 74.0667 64.6169 73.8297Z" fill="black" fill-opacity="0.2"/>
</svg>
