<svg width="32" height="19" viewBox="0 0 32 19" fill="none" xmlns="http://www.w3.org/2000/svg">
<path d="M10.0117 5.59668C10.0117 5.15918 9.92188 4.78418 9.74219 4.47168C9.5625 4.15918 9.25391 3.91309 8.81641 3.7334C8.51172 3.6084 8.15625 3.53418 7.75 3.51074C7.34375 3.47949 6.87109 3.46387 6.33203 3.46387H4.70312V8.16309H6.08594C6.80469 8.16309 7.40625 8.12793 7.89062 8.05762C8.375 7.9873 8.78125 7.82715 9.10938 7.57715C9.42188 7.33496 9.64844 7.06934 9.78906 6.78027C9.9375 6.4834 10.0117 6.08887 10.0117 5.59668ZM17.0312 17.7021H11.5352L6.77734 11.3037H4.70312V17.7021H0.226562V0.25293H7.77344C8.80469 0.25293 9.69141 0.311523 10.4336 0.428711C11.1758 0.545898 11.8711 0.799805 12.5195 1.19043C13.1758 1.58105 13.6953 2.08887 14.0781 2.71387C14.4688 3.33105 14.6641 4.1084 14.6641 5.0459C14.6641 6.33496 14.3633 7.38574 13.7617 8.19824C13.168 9.01074 12.3164 9.68652 11.207 10.2256L17.0312 17.7021ZM31.8789 17.7021H27.6602V16.249C26.8789 16.8428 26.1641 17.2959 25.5156 17.6084C24.8672 17.9131 24.0938 18.0654 23.1953 18.0654C21.7422 18.0654 20.6211 17.6475 19.832 16.8115C19.0508 15.9756 18.6602 14.7412 18.6602 13.1084V4.54199H22.9023V11.0693C22.9023 11.7334 22.9219 12.2881 22.9609 12.7334C23.0078 13.1709 23.1094 13.5342 23.2656 13.8232C23.4141 14.1123 23.6367 14.3232 23.9336 14.4561C24.2383 14.5889 24.6602 14.6553 25.1992 14.6553C25.5586 14.6553 25.957 14.5889 26.3945 14.4561C26.832 14.3232 27.2539 14.1279 27.6602 13.8701V4.54199H31.8789V17.7021Z" fill="white"/>
</svg>
