<svg width="101" height="105" viewBox="0 0 101 105" fill="none" xmlns="http://www.w3.org/2000/svg">
<path fill-rule="evenodd" clip-rule="evenodd" d="M5.57403 87.7383C3.55545 87.4014 1.77988 86.1284 0.696928 84.2416L0.260151 83.4806L0.159644 47.3749C0.104365 27.5168 0.10911 11.2692 0.170188 11.2692C0.231267 11.2692 0.442066 10.8284 0.638631 10.2897C0.835196 9.75097 1.12444 9.20516 1.28138 9.07679C1.43833 8.94841 1.56675 8.76515 1.56675 8.66953C1.56675 8.43632 2.32168 7.70323 2.56183 7.70323C2.66689 7.70323 2.82519 7.58693 2.91361 7.44479C3.00202 7.30266 3.57187 6.96835 4.17994 6.70188C5.24488 6.23521 5.47578 6.21513 10.4616 6.1557L15.6378 6.09399L15.6459 7.2453C15.6504 7.87852 15.6529 10.4471 15.6515 12.9532C15.6489 17.685 15.7246 18.2387 16.5602 19.5925C17.1843 20.6035 18.781 22.035 19.081 21.8523C19.1772 21.7937 19.256 21.8293 19.256 21.9315C19.256 22.4043 20.6339 22.6606 23.1758 22.6606C25.6625 22.6606 25.8377 22.6338 26.7941 22.1072C28.3741 21.2373 29.5692 19.7235 29.7549 18.3568C29.7949 18.0626 29.8913 17.7591 29.9692 17.6823C30.0471 17.6055 30.1108 14.9722 30.1108 11.8305V6.11834H34.1311H38.1514V11.8993C38.1514 17.4136 38.1716 17.7242 38.5893 18.635C38.8301 19.1602 39.1015 19.5899 39.1923 19.5899C39.2832 19.5899 39.3575 19.7184 39.3575 19.8755C39.3575 20.1827 41.2215 21.6714 42.3727 22.2837C42.9549 22.5933 43.5097 22.6581 45.5889 22.6592C48.3622 22.6607 48.7229 22.5479 50.3603 21.1662C52.3162 19.5157 52.608 18.2427 52.6174 11.3187L52.6244 6.11834H57.2402H61.8559L61.8687 11.715C61.8825 17.7105 61.9277 18.3214 62.4368 19.3918C62.8549 20.2708 64.2984 21.6633 65.3686 22.2199C66.1021 22.6015 66.514 22.6494 69.1076 22.6546C71.5352 22.6596 72.1903 22.5958 73.0274 22.2726C74.2948 21.7834 75.3391 21.1891 75.3391 20.9571C75.3391 20.8589 75.4776 20.7785 75.6469 20.7785C75.8162 20.7785 76.0152 20.6225 76.0891 20.4318C76.1629 20.2412 76.3862 19.9123 76.5853 19.7011C76.7843 19.4899 76.9585 19.2001 76.9723 19.0572C76.9862 18.9143 77.0201 18.7083 77.0477 18.5993C77.0754 18.4904 77.1093 15.6376 77.1231 12.2598L77.1482 6.11834H81.2332C84.4848 6.11834 85.5203 6.1847 86.3088 6.44358C86.8537 6.62247 87.4125 6.85626 87.5507 6.96312C87.6889 7.06998 87.802 7.09632 87.802 7.02166C87.802 6.69884 89.6473 8.87411 90.0608 9.68433L90.5157 10.5758L90.5649 32.6652C90.5919 44.8143 90.5467 54.6611 90.4644 54.5469C90.2574 54.2597 89.047 53.4394 88.7496 53.3848C88.6154 53.3602 87.8825 53.0565 87.1209 52.71C86.3593 52.3635 85.6535 52.08 85.5522 52.08C85.4426 52.08 85.384 47.5743 85.4073 40.9363L85.4464 29.7926L45.768 29.7384C23.9449 29.7086 5.88605 29.7326 5.63729 29.7917L5.18501 29.8992V56.1334C5.18501 76.8767 5.23749 82.3995 5.43573 82.5203C5.57363 82.6043 14.2047 82.6764 24.6159 82.6806C35.0271 82.6847 43.6132 82.755 43.6962 82.8368C43.7791 82.9186 43.8696 83.186 43.8972 83.4311C43.9248 83.6762 43.9601 83.8768 43.9756 83.8768C43.9912 83.8768 44.0423 84.24 44.0893 84.6839C44.1363 85.1278 44.312 85.8745 44.4798 86.3432C44.6476 86.8119 44.7849 87.3625 44.7849 87.5667C44.7849 87.9273 44.2312 87.9374 25.6382 87.9148C15.1076 87.9019 6.07869 87.8225 5.57403 87.7383Z" fill="#1E1E1E"/>
<path fill-rule="evenodd" clip-rule="evenodd" d="M5.57403 87.7383C3.55545 87.4014 1.77988 86.1284 0.696928 84.2416L0.260151 83.4806L0.159644 47.3749C0.104365 27.5168 0.10911 11.2692 0.170188 11.2692C0.231267 11.2692 0.442066 10.8284 0.638631 10.2897C0.835196 9.75097 1.12444 9.20516 1.28138 9.07679C1.43833 8.94841 1.56675 8.76515 1.56675 8.66953C1.56675 8.43632 2.32168 7.70323 2.56183 7.70323C2.66689 7.70323 2.82519 7.58693 2.91361 7.44479C3.00202 7.30266 3.57187 6.96835 4.17994 6.70188C5.24488 6.23521 5.47578 6.21513 10.4616 6.1557L15.6378 6.09399L15.6459 7.2453C15.6504 7.87852 15.6529 10.4471 15.6515 12.9532C15.6489 17.685 15.7246 18.2387 16.5602 19.5925C17.1843 20.6035 18.781 22.035 19.081 21.8523C19.1772 21.7937 19.256 21.8293 19.256 21.9315C19.256 22.4043 20.6339 22.6606 23.1758 22.6606C25.6625 22.6606 25.8377 22.6338 26.7941 22.1072C28.3741 21.2373 29.5692 19.7235 29.7549 18.3568C29.7949 18.0626 29.8913 17.7591 29.9692 17.6823C30.0471 17.6055 30.1108 14.9722 30.1108 11.8305V6.11834H34.1311H38.1514V11.8993C38.1514 17.4136 38.1716 17.7242 38.5893 18.635C38.8301 19.1602 39.1015 19.5899 39.1923 19.5899C39.2832 19.5899 39.3575 19.7184 39.3575 19.8755C39.3575 20.1827 41.2215 21.6714 42.3727 22.2837C42.9549 22.5933 43.5097 22.6581 45.5889 22.6592C48.3622 22.6607 48.7229 22.5479 50.3603 21.1662C52.3162 19.5157 52.608 18.2427 52.6174 11.3187L52.6244 6.11834H57.2402H61.8559L61.8687 11.715C61.8825 17.7105 61.9277 18.3214 62.4368 19.3918C62.8549 20.2708 64.2984 21.6633 65.3686 22.2199C66.1021 22.6015 66.514 22.6494 69.1076 22.6546C71.5352 22.6596 72.1903 22.5958 73.0274 22.2726C74.2948 21.7834 75.3391 21.1891 75.3391 20.9571C75.3391 20.8589 75.4776 20.7785 75.6469 20.7785C75.8162 20.7785 76.0152 20.6225 76.0891 20.4318C76.1629 20.2412 76.3862 19.9123 76.5853 19.7011C76.7843 19.4899 76.9585 19.2001 76.9723 19.0572C76.9862 18.9143 77.0201 18.7083 77.0477 18.5993C77.0754 18.4904 77.1093 15.6376 77.1231 12.2598L77.1482 6.11834H81.2332C84.4848 6.11834 85.5203 6.1847 86.3088 6.44358C86.8537 6.62247 87.4125 6.85626 87.5507 6.96312C87.6889 7.06998 87.802 7.09632 87.802 7.02166C87.802 6.69884 89.6473 8.87411 90.0608 9.68433L90.5157 10.5758L90.5649 32.6652C90.5919 44.8143 90.5467 54.6611 90.4644 54.5469C90.2574 54.2597 89.047 53.4394 88.7496 53.3848C88.6154 53.3602 87.8825 53.0565 87.1209 52.71C86.3593 52.3635 85.6535 52.08 85.5522 52.08C85.4426 52.08 85.384 47.5743 85.4073 40.9363L85.4464 29.7926L45.768 29.7384C23.9449 29.7086 5.88605 29.7326 5.63729 29.7917L5.18501 29.8992V56.1334C5.18501 76.8767 5.23749 82.3995 5.43573 82.5203C5.57363 82.6043 14.2047 82.6764 24.6159 82.6806C35.0271 82.6847 43.6132 82.755 43.6962 82.8368C43.7791 82.9186 43.8696 83.186 43.8972 83.4311C43.9248 83.6762 43.9601 83.8768 43.9756 83.8768C43.9912 83.8768 44.0423 84.24 44.0893 84.6839C44.1363 85.1278 44.312 85.8745 44.4798 86.3432C44.6476 86.8119 44.7849 87.3625 44.7849 87.5667C44.7849 87.9273 44.2312 87.9374 25.6382 87.9148C15.1076 87.9019 6.07869 87.8225 5.57403 87.7383Z" fill="black" fill-opacity="0.2"/>
<path fill-rule="evenodd" clip-rule="evenodd" d="M21.0849 19.8084C20.2513 19.6635 19.7252 19.2455 18.6528 17.8762C18.4267 17.5875 18.4137 2.75088 18.6395 2.75088C18.7313 2.75088 18.9135 2.49608 19.0444 2.18464C19.4871 1.13149 20.2902 0.750762 22.3879 0.599582C23.43 0.524483 24.2826 0.532056 24.2826 0.61641C24.2826 0.700764 24.4286 0.769779 24.607 0.769779C24.7854 0.769779 25.2789 0.962239 25.7036 1.19747C27.0553 1.94623 27.0968 2.21018 27.0968 10.0602C27.0968 13.858 27.0391 17.2496 26.9686 17.5971C26.8981 17.9445 26.5103 18.5778 26.1068 19.0042C25.3851 19.767 25.3454 19.7811 23.672 19.871C22.7364 19.9212 21.5722 19.8931 21.0849 19.8084Z" fill="#1E1E1E"/>
<path fill-rule="evenodd" clip-rule="evenodd" d="M21.0849 19.8084C20.2513 19.6635 19.7252 19.2455 18.6528 17.8762C18.4267 17.5875 18.4137 2.75088 18.6395 2.75088C18.7313 2.75088 18.9135 2.49608 19.0444 2.18464C19.4871 1.13149 20.2902 0.750762 22.3879 0.599582C23.43 0.524483 24.2826 0.532056 24.2826 0.61641C24.2826 0.700764 24.4286 0.769779 24.607 0.769779C24.7854 0.769779 25.2789 0.962239 25.7036 1.19747C27.0553 1.94623 27.0968 2.21018 27.0968 10.0602C27.0968 13.858 27.0391 17.2496 26.9686 17.5971C26.8981 17.9445 26.5103 18.5778 26.1068 19.0042C25.3851 19.767 25.3454 19.7811 23.672 19.871C22.7364 19.9212 21.5722 19.8931 21.0849 19.8084Z" fill="black" fill-opacity="0.2"/>
<path fill-rule="evenodd" clip-rule="evenodd" d="M42.4749 19.4537C41.0602 18.5063 41.0691 18.563 41.0388 10.2788L41.0117 2.84961L41.4906 2.11204C41.754 1.70637 42.2637 1.22266 42.6233 1.03711C43.4386 0.616438 46.1871 0.446551 47.316 0.747049C48.1608 0.971911 49.006 1.55233 49.006 1.90756C49.006 2.01764 49.1458 2.22205 49.3167 2.36181C49.4876 2.50157 49.5809 2.73536 49.524 2.88135C49.4672 3.02733 49.4857 3.1467 49.5651 3.14661C49.6446 3.14653 49.6643 6.47448 49.6091 10.5421L49.5086 17.9376L48.936 18.677C48.1598 19.6795 47.6395 19.8501 45.2367 19.8894C43.3688 19.92 43.1103 19.8793 42.4749 19.4537Z" fill="#1E1E1E"/>
<path fill-rule="evenodd" clip-rule="evenodd" d="M42.4749 19.4537C41.0602 18.5063 41.0691 18.563 41.0388 10.2788L41.0117 2.84961L41.4906 2.11204C41.754 1.70637 42.2637 1.22266 42.6233 1.03711C43.4386 0.616438 46.1871 0.446551 47.316 0.747049C48.1608 0.971911 49.006 1.55233 49.006 1.90756C49.006 2.01764 49.1458 2.22205 49.3167 2.36181C49.4876 2.50157 49.5809 2.73536 49.524 2.88135C49.4672 3.02733 49.4857 3.1467 49.5651 3.14661C49.6446 3.14653 49.6643 6.47448 49.6091 10.5421L49.5086 17.9376L48.936 18.677C48.1598 19.6795 47.6395 19.8501 45.2367 19.8894C43.3688 19.92 43.1103 19.8793 42.4749 19.4537Z" fill="black" fill-opacity="0.2"/>
<path fill-rule="evenodd" clip-rule="evenodd" d="M67.7841 19.8281C67.1308 19.7805 66.7988 19.6046 66.176 18.9761L65.3912 18.184V10.3828C65.3912 1.48428 65.3054 1.93349 67.1909 0.96584C68.0791 0.510001 68.3022 0.479019 69.8967 0.59014C72.2625 0.75502 72.9425 1.15231 73.523 2.70871C73.8312 3.53487 73.8666 4.42552 73.8324 10.4767C73.8068 15.0011 73.7172 17.4957 73.5675 17.8563C73.4431 18.1559 73.3928 18.4011 73.4558 18.4011C73.8539 18.4011 71.7829 19.7931 71.3524 19.8149C70.1043 19.8782 68.5507 19.8839 67.7841 19.8281Z" fill="#1E1E1E"/>
<path fill-rule="evenodd" clip-rule="evenodd" d="M67.7841 19.8281C67.1308 19.7805 66.7988 19.6046 66.176 18.9761L65.3912 18.184V10.3828C65.3912 1.48428 65.3054 1.93349 67.1909 0.96584C68.0791 0.510001 68.3022 0.479019 69.8967 0.59014C72.2625 0.75502 72.9425 1.15231 73.523 2.70871C73.8312 3.53487 73.8666 4.42552 73.8324 10.4767C73.8068 15.0011 73.7172 17.4957 73.5675 17.8563C73.4431 18.1559 73.3928 18.4011 73.4558 18.4011C73.8539 18.4011 71.7829 19.7931 71.3524 19.8149C70.1043 19.8782 68.5507 19.8839 67.7841 19.8281Z" fill="black" fill-opacity="0.2"/>
<path fill-rule="evenodd" clip-rule="evenodd" d="M13.4718 42.5215L13.5256 37.7173H19.154H24.7824L24.8392 42.0757C24.8705 44.4729 24.8461 46.6347 24.7852 46.8799L24.6743 47.3257H19.0461H13.418L13.4718 42.5215Z" fill="#1E1E1E"/>
<path fill-rule="evenodd" clip-rule="evenodd" d="M13.4718 42.5215L13.5256 37.7173H19.154H24.7824L24.8392 42.0757C24.8705 44.4729 24.8461 46.6347 24.7852 46.8799L24.6743 47.3257H19.0461H13.418L13.4718 42.5215Z" fill="black" fill-opacity="0.2"/>
<path fill-rule="evenodd" clip-rule="evenodd" d="M13.5629 60.8658C13.4875 60.7914 13.4258 58.6505 13.4258 56.108C13.4258 51.8456 13.4532 51.4838 13.7776 51.4645C13.971 51.4529 16.4639 51.4278 19.3172 51.4086C23.0396 51.3836 24.5596 51.4385 24.6982 51.603C24.8128 51.7392 24.8693 53.6735 24.8372 56.364L24.7831 60.8957L19.2416 60.9483C16.1937 60.9772 13.6383 60.9401 13.5629 60.8658Z" fill="#1E1E1E"/>
<path fill-rule="evenodd" clip-rule="evenodd" d="M13.5629 60.8658C13.4875 60.7914 13.4258 58.6505 13.4258 56.108C13.4258 51.8456 13.4532 51.4838 13.7776 51.4645C13.971 51.4529 16.4639 51.4278 19.3172 51.4086C23.0396 51.3836 24.5596 51.4385 24.6982 51.603C24.8128 51.7392 24.8693 53.6735 24.8372 56.364L24.7831 60.8957L19.2416 60.9483C16.1937 60.9772 13.6383 60.9401 13.5629 60.8658Z" fill="black" fill-opacity="0.2"/>
<path fill-rule="evenodd" clip-rule="evenodd" d="M13.6577 75.673C13.483 75.5665 13.4342 74.2962 13.4739 70.8865L13.5279 66.2449H19.1564H24.7848L24.8388 70.8865C24.8784 74.2853 24.8294 75.5667 24.656 75.6723C24.3461 75.8611 13.9676 75.8617 13.6577 75.673Z" fill="#1E1E1E"/>
<path fill-rule="evenodd" clip-rule="evenodd" d="M13.6577 75.673C13.483 75.5665 13.4342 74.2962 13.4739 70.8865L13.5279 66.2449H19.1564H24.7848L24.8388 70.8865C24.8784 74.2853 24.8294 75.5667 24.656 75.6723C24.3461 75.8611 13.9676 75.8617 13.6577 75.673Z" fill="black" fill-opacity="0.2"/>
<path fill-rule="evenodd" clip-rule="evenodd" d="M31.6755 75.7042C31.4872 75.6632 31.2927 75.4793 31.2432 75.2956C31.1653 75.0061 31.1985 67.8229 31.2835 66.5915L31.3143 66.1458H36.9212C41.8485 66.1458 42.5429 66.1837 42.6501 66.4591C42.7172 66.6315 42.7721 68.7234 42.7721 71.1078C42.7721 75.0554 42.7402 75.4598 42.4157 75.631C42.0837 75.8061 32.4449 75.8718 31.6755 75.7042Z" fill="#1E1E1E"/>
<path fill-rule="evenodd" clip-rule="evenodd" d="M31.6755 75.7042C31.4872 75.6632 31.2927 75.4793 31.2432 75.2956C31.1653 75.0061 31.1985 67.8229 31.2835 66.5915L31.3143 66.1458H36.9212C41.8485 66.1458 42.5429 66.1837 42.6501 66.4591C42.7172 66.6315 42.7721 68.7234 42.7721 71.1078C42.7721 75.0554 42.7402 75.4598 42.4157 75.631C42.0837 75.8061 32.4449 75.8718 31.6755 75.7042Z" fill="black" fill-opacity="0.2"/>
<path fill-rule="evenodd" clip-rule="evenodd" d="M31.2425 60.4502C31.0781 59.5935 31.1961 51.7349 31.376 51.5576C31.61 51.3272 42.2171 51.313 42.5217 51.5427C42.8735 51.8081 42.8829 60.4111 42.5317 60.7572C42.3559 60.9305 40.8066 60.995 36.8188 60.995H31.3471L31.2425 60.4502Z" fill="#1E1E1E"/>
<path fill-rule="evenodd" clip-rule="evenodd" d="M31.2425 60.4502C31.0781 59.5935 31.1961 51.7349 31.376 51.5576C31.61 51.3272 42.2171 51.313 42.5217 51.5427C42.8735 51.8081 42.8829 60.4111 42.5317 60.7572C42.3559 60.9305 40.8066 60.995 36.8188 60.995H31.3471L31.2425 60.4502Z" fill="black" fill-opacity="0.2"/>
<path fill-rule="evenodd" clip-rule="evenodd" d="M31.6093 46.1778C31.2076 46.1212 31.1966 46.0042 31.1917 41.7617C31.1874 38.0923 31.2314 37.4208 31.47 37.511C31.6258 37.57 34.0978 37.6182 36.9633 37.6182H42.1732V41.9528V46.2874L37.0976 46.2617C34.306 46.2476 31.8363 46.2098 31.6093 46.1778Z" fill="#1E1E1E"/>
<path fill-rule="evenodd" clip-rule="evenodd" d="M31.6093 46.1778C31.2076 46.1212 31.1966 46.0042 31.1917 41.7617C31.1874 38.0923 31.2314 37.4208 31.47 37.511C31.6258 37.57 34.0978 37.6182 36.9633 37.6182H42.1732V41.9528V46.2874L37.0976 46.2617C34.306 46.2476 31.8363 46.2098 31.6093 46.1778Z" fill="black" fill-opacity="0.2"/>
<path fill-rule="evenodd" clip-rule="evenodd" d="M48.6436 47.0875C48.4701 46.9166 48.4023 45.5866 48.4023 42.354C48.4023 38.4373 48.4433 37.8428 48.7203 37.7381C49.2784 37.527 59.6248 37.6009 59.7603 37.8169C59.8607 37.977 59.9622 45.6581 59.8814 46.9785C59.8617 47.2997 59.4568 47.3252 54.3725 47.3252C50.3723 47.3252 48.8194 47.2608 48.6436 47.0875Z" fill="#1E1E1E"/>
<path fill-rule="evenodd" clip-rule="evenodd" d="M48.6436 47.0875C48.4701 46.9166 48.4023 45.5866 48.4023 42.354C48.4023 38.4373 48.4433 37.8428 48.7203 37.7381C49.2784 37.527 59.6248 37.6009 59.7603 37.8169C59.8607 37.977 59.9622 45.6581 59.8814 46.9785C59.8617 47.2997 59.4568 47.3252 54.3725 47.3252C50.3723 47.3252 48.8194 47.2608 48.6436 47.0875Z" fill="black" fill-opacity="0.2"/>
<path fill-rule="evenodd" clip-rule="evenodd" d="M48.5364 61.4573C48.4626 61.3847 48.4023 59.2621 48.4023 56.7405C48.4023 53.1778 48.4636 52.0733 48.6769 51.7857C48.9314 51.4428 49.3254 51.4132 54.0541 51.3827C56.8605 51.3646 59.3149 51.4281 59.5084 51.5238C60.1342 51.8334 59.9424 52.5687 59.1566 52.8725C58.7697 53.0222 58.4531 53.1954 58.4531 53.2574C58.4531 53.3194 58.1591 53.4943 57.7998 53.6461C57.4405 53.7978 56.7694 54.2207 56.3086 54.5859C55.8478 54.9511 55.4053 55.2499 55.3253 55.2499C55.2453 55.2499 54.9213 55.5165 54.6053 55.8424C54.2893 56.1683 54.0308 56.3779 54.0308 56.3083C54.0308 56.2386 53.7586 56.4623 53.426 56.8054C53.0933 57.1484 52.7315 57.4291 52.6219 57.4291C52.5123 57.4291 52.4226 57.5034 52.4226 57.5943C52.4226 57.6851 51.8301 58.3699 51.1059 59.1159C50.3818 59.862 49.6386 60.7237 49.4545 61.0309C49.1281 61.5755 48.8074 61.7244 48.5364 61.4573Z" fill="#1E1E1E"/>
<path fill-rule="evenodd" clip-rule="evenodd" d="M48.5364 61.4573C48.4626 61.3847 48.4023 59.2621 48.4023 56.7405C48.4023 53.1778 48.4636 52.0733 48.6769 51.7857C48.9314 51.4428 49.3254 51.4132 54.0541 51.3827C56.8605 51.3646 59.3149 51.4281 59.5084 51.5238C60.1342 51.8334 59.9424 52.5687 59.1566 52.8725C58.7697 53.0222 58.4531 53.1954 58.4531 53.2574C58.4531 53.3194 58.1591 53.4943 57.7998 53.6461C57.4405 53.7978 56.7694 54.2207 56.3086 54.5859C55.8478 54.9511 55.4053 55.2499 55.3253 55.2499C55.2453 55.2499 54.9213 55.5165 54.6053 55.8424C54.2893 56.1683 54.0308 56.3779 54.0308 56.3083C54.0308 56.2386 53.7586 56.4623 53.426 56.8054C53.0933 57.1484 52.7315 57.4291 52.6219 57.4291C52.5123 57.4291 52.4226 57.5034 52.4226 57.5943C52.4226 57.6851 51.8301 58.3699 51.1059 59.1159C50.3818 59.862 49.6386 60.7237 49.4545 61.0309C49.1281 61.5755 48.8074 61.7244 48.5364 61.4573Z" fill="black" fill-opacity="0.2"/>
<path fill-rule="evenodd" clip-rule="evenodd" d="M65.4072 47.0122C65.3401 46.8399 65.2852 44.6557 65.2852 42.1585V37.6182H71.0141H76.743V42.1606C76.743 46.0259 76.6959 46.7494 76.4271 47.0143C76.1559 47.2815 75.3622 47.3256 70.8202 47.3256C66.1809 47.3256 65.5142 47.287 65.4072 47.0122Z" fill="#1E1E1E"/>
<path fill-rule="evenodd" clip-rule="evenodd" d="M65.4072 47.0122C65.3401 46.8399 65.2852 44.6557 65.2852 42.1585V37.6182H71.0141H76.743V42.1606C76.743 46.0259 76.6959 46.7494 76.4271 47.0143C76.1559 47.2815 75.3622 47.3256 70.8202 47.3256C66.1809 47.3256 65.5142 47.287 65.4072 47.0122Z" fill="black" fill-opacity="0.2"/>
<path fill-rule="evenodd" clip-rule="evenodd" d="M69.8066 104.803C69.7372 104.735 69.5297 104.672 69.3454 104.664C66.8879 104.555 61.9852 102.759 59.0602 100.896C56.0294 98.966 53.2208 96.2379 51.0788 93.1436C50.6185 92.4787 49.0663 89.5436 48.5355 88.3345C47.8765 86.8333 46.9249 83.0313 46.9623 82.0495C46.9759 81.6926 46.922 81.4006 46.8424 81.4006C46.66 81.4006 46.679 76.0058 46.8625 75.7132C46.9371 75.5943 46.9852 75.2875 46.9694 75.0314C46.9537 74.7753 47.0859 73.8972 47.2634 73.0799C48.7657 66.1612 53.0137 60.1409 59.1607 56.2188C59.9346 55.725 60.9748 55.1353 61.4724 54.9082C62.9759 54.222 64.3695 53.6371 64.6886 53.5581C64.8544 53.517 65.4876 53.3401 66.0957 53.1648C72.3746 51.3554 79.5807 52.0368 85.3931 54.9897C88.5898 56.6137 90.0345 57.6791 92.6399 60.3335C94.5265 62.2556 95.4498 63.4488 96.4481 65.2546C96.8095 65.9083 97.1682 66.5324 97.2453 66.6413C97.7067 67.2938 98.9855 70.662 99.3513 72.1884C100.527 77.093 100.357 82.1009 98.8632 86.5515C98.2021 88.5216 96.7075 91.8578 96.3337 92.1976C96.2138 92.3066 95.8069 92.8861 95.4295 93.4853C94.5355 94.9046 94.0947 95.4124 91.9426 97.5024C90.4074 98.9933 87.8667 101.014 87.5269 101.014C87.4687 101.014 87.1052 101.225 86.7191 101.483C85.8351 102.074 82.0467 103.717 80.917 103.999C80.4491 104.116 79.6139 104.297 79.0611 104.401C78.5083 104.506 77.7847 104.644 77.453 104.709C76.6104 104.873 69.9606 104.955 69.8066 104.803ZM77.3514 100.699C78.6187 100.517 81.2999 99.6627 82.5933 99.0297C86.053 97.3365 87.0976 96.6047 89.5139 94.1811C92.8129 90.8723 94.5022 87.8051 95.5287 83.2604C96.3718 79.5275 96.1387 74.9582 94.9364 71.6478C94.7674 71.1824 94.6089 70.7182 94.5842 70.6161C94.4545 70.0805 92.3727 66.2369 91.9341 65.7231C91.6533 65.3942 91.4235 65.0573 91.4235 64.9745C91.4235 64.6838 87.871 61.2419 86.9886 60.6777C86.498 60.364 86.0514 60.0565 85.9961 59.9944C85.6831 59.6424 83.2588 58.3653 81.8753 57.8235C78.8256 56.6293 76.8152 56.2635 73.2879 56.2613C71.4634 56.2601 70.0771 56.3404 70.0076 56.4513C69.9414 56.5568 69.8012 56.5908 69.6961 56.5268C69.5911 56.4628 69.1713 56.519 68.7634 56.6517C68.3555 56.7844 67.8824 56.9064 67.712 56.9229C67.3188 56.961 64.8387 57.7443 64.3521 57.9841C63.9839 58.1656 63.0489 58.6457 62.2184 59.0797C58.1904 61.1847 53.9662 66.0095 52.3023 70.4056C51.5798 72.3147 51.2795 73.3556 51.1023 74.5658C50.6357 77.7521 50.5925 79.312 50.9158 81.3015C50.9689 81.6284 51.063 82.2525 51.1249 82.6883C51.2471 83.5486 51.9297 86.012 52.2228 86.6505C52.3229 86.8684 52.5914 87.4671 52.8196 87.9808C53.3552 89.187 54.3063 90.7152 55.4419 92.1944C56.4 93.4423 57.9416 95.0702 58.1653 95.0702C58.2387 95.0702 58.4785 95.2955 58.6983 95.5708C59.144 96.1292 61.827 97.9021 63.4006 98.6781C65.338 99.6334 68.3941 100.577 70.116 100.752C70.7241 100.813 71.2668 100.907 71.3221 100.961C71.4462 101.08 76.1139 100.878 77.3514 100.699Z" fill="#1E1E1E"/>
<path fill-rule="evenodd" clip-rule="evenodd" d="M69.8066 104.803C69.7372 104.735 69.5297 104.672 69.3454 104.664C66.8879 104.555 61.9852 102.759 59.0602 100.896C56.0294 98.966 53.2208 96.2379 51.0788 93.1436C50.6185 92.4787 49.0663 89.5436 48.5355 88.3345C47.8765 86.8333 46.9249 83.0313 46.9623 82.0495C46.9759 81.6926 46.922 81.4006 46.8424 81.4006C46.66 81.4006 46.679 76.0058 46.8625 75.7132C46.9371 75.5943 46.9852 75.2875 46.9694 75.0314C46.9537 74.7753 47.0859 73.8972 47.2634 73.0799C48.7657 66.1612 53.0137 60.1409 59.1607 56.2188C59.9346 55.725 60.9748 55.1353 61.4724 54.9082C62.9759 54.222 64.3695 53.6371 64.6886 53.5581C64.8544 53.517 65.4876 53.3401 66.0957 53.1648C72.3746 51.3554 79.5807 52.0368 85.3931 54.9897C88.5898 56.6137 90.0345 57.6791 92.6399 60.3335C94.5265 62.2556 95.4498 63.4488 96.4481 65.2546C96.8095 65.9083 97.1682 66.5324 97.2453 66.6413C97.7067 67.2938 98.9855 70.662 99.3513 72.1884C100.527 77.093 100.357 82.1009 98.8632 86.5515C98.2021 88.5216 96.7075 91.8578 96.3337 92.1976C96.2138 92.3066 95.8069 92.8861 95.4295 93.4853C94.5355 94.9046 94.0947 95.4124 91.9426 97.5024C90.4074 98.9933 87.8667 101.014 87.5269 101.014C87.4687 101.014 87.1052 101.225 86.7191 101.483C85.8351 102.074 82.0467 103.717 80.917 103.999C80.4491 104.116 79.6139 104.297 79.0611 104.401C78.5083 104.506 77.7847 104.644 77.453 104.709C76.6104 104.873 69.9606 104.955 69.8066 104.803ZM77.3514 100.699C78.6187 100.517 81.2999 99.6627 82.5933 99.0297C86.053 97.3365 87.0976 96.6047 89.5139 94.1811C92.8129 90.8723 94.5022 87.8051 95.5287 83.2604C96.3718 79.5275 96.1387 74.9582 94.9364 71.6478C94.7674 71.1824 94.6089 70.7182 94.5842 70.6161C94.4545 70.0805 92.3727 66.2369 91.9341 65.7231C91.6533 65.3942 91.4235 65.0573 91.4235 64.9745C91.4235 64.6838 87.871 61.2419 86.9886 60.6777C86.498 60.364 86.0514 60.0565 85.9961 59.9944C85.6831 59.6424 83.2588 58.3653 81.8753 57.8235C78.8256 56.6293 76.8152 56.2635 73.2879 56.2613C71.4634 56.2601 70.0771 56.3404 70.0076 56.4513C69.9414 56.5568 69.8012 56.5908 69.6961 56.5268C69.5911 56.4628 69.1713 56.519 68.7634 56.6517C68.3555 56.7844 67.8824 56.9064 67.712 56.9229C67.3188 56.961 64.8387 57.7443 64.3521 57.9841C63.9839 58.1656 63.0489 58.6457 62.2184 59.0797C58.1904 61.1847 53.9662 66.0095 52.3023 70.4056C51.5798 72.3147 51.2795 73.3556 51.1023 74.5658C50.6357 77.7521 50.5925 79.312 50.9158 81.3015C50.9689 81.6284 51.063 82.2525 51.1249 82.6883C51.2471 83.5486 51.9297 86.012 52.2228 86.6505C52.3229 86.8684 52.5914 87.4671 52.8196 87.9808C53.3552 89.187 54.3063 90.7152 55.4419 92.1944C56.4 93.4423 57.9416 95.0702 58.1653 95.0702C58.2387 95.0702 58.4785 95.2955 58.6983 95.5708C59.144 96.1292 61.827 97.9021 63.4006 98.6781C65.338 99.6334 68.3941 100.577 70.116 100.752C70.7241 100.813 71.2668 100.907 71.3221 100.961C71.4462 101.08 76.1139 100.878 77.3514 100.699Z" fill="black" fill-opacity="0.2"/>
<path fill-rule="evenodd" clip-rule="evenodd" d="M63.1919 63.9003C62.5892 63.3063 62.5359 62.6826 63.0277 61.9814C63.7896 60.8954 65.6899 61.518 65.6899 62.8537C65.6899 63.7281 65.3239 64.1519 64.4476 64.292C63.8316 64.3906 63.6235 64.3257 63.1919 63.9003Z" fill="#1E1E1E"/>
<path fill-rule="evenodd" clip-rule="evenodd" d="M63.1919 63.9003C62.5892 63.3063 62.5359 62.6826 63.0277 61.9814C63.7896 60.8954 65.6899 61.518 65.6899 62.8537C65.6899 63.7281 65.3239 64.1519 64.4476 64.292C63.8316 64.3906 63.6235 64.3257 63.1919 63.9003Z" fill="black" fill-opacity="0.2"/>
<path fill-rule="evenodd" clip-rule="evenodd" d="M72.5924 61.9533C71.8913 61.6126 71.702 60.3084 72.2232 59.4099C72.3812 59.1375 72.5136 58.9859 72.5176 59.073C72.5215 59.1602 72.6761 59.1479 72.8612 59.0458C73.3792 58.7602 74.3033 59.1732 74.6578 59.8489C75.3811 61.2274 73.9981 62.6365 72.5924 61.9533Z" fill="#1E1E1E"/>
<path fill-rule="evenodd" clip-rule="evenodd" d="M72.5924 61.9533C71.8913 61.6126 71.702 60.3084 72.2232 59.4099C72.3812 59.1375 72.5136 58.9859 72.5176 59.073C72.5215 59.1602 72.6761 59.1479 72.8612 59.0458C73.3792 58.7602 74.3033 59.1732 74.6578 59.8489C75.3811 61.2274 73.9981 62.6365 72.5924 61.9533Z" fill="black" fill-opacity="0.2"/>
<path fill-rule="evenodd" clip-rule="evenodd" d="M81.9216 64.157C81.7281 64.0414 81.5698 64.0129 81.5698 64.0936C81.5698 64.1744 81.4501 64.0791 81.3037 63.8818C81.1224 63.6374 81.0803 63.2465 81.1717 62.6534C81.3347 61.5944 81.3478 61.5806 82.307 61.4551C84.3038 61.1938 84.8187 63.9227 82.8378 64.2685C82.5273 64.3227 82.115 64.2725 81.9216 64.157Z" fill="#1E1E1E"/>
<path fill-rule="evenodd" clip-rule="evenodd" d="M81.9216 64.157C81.7281 64.0414 81.5698 64.0129 81.5698 64.0936C81.5698 64.1744 81.4501 64.0791 81.3037 63.8818C81.1224 63.6374 81.0803 63.2465 81.1717 62.6534C81.3347 61.5944 81.3478 61.5806 82.307 61.4551C84.3038 61.1938 84.8187 63.9227 82.8378 64.2685C82.5273 64.3227 82.115 64.2725 81.9216 64.157Z" fill="black" fill-opacity="0.2"/>
<path fill-rule="evenodd" clip-rule="evenodd" d="M56.7714 70.8436C56.6194 70.7624 56.495 70.7213 56.495 70.7525C56.495 70.7836 56.4329 70.7519 56.3569 70.6819C56.2809 70.6119 56.2405 70.4987 56.2671 70.4303C56.2937 70.3619 56.2655 70.306 56.2043 70.306C56.1431 70.306 56.093 70.2391 56.093 70.1574C56.093 70.0757 56.0559 70.0088 56.0105 70.0088C55.8884 70.0088 56.0317 69.1068 56.1994 68.8201C56.5002 68.306 56.7241 68.1268 57.0654 68.1268C57.3155 68.1268 57.4004 68.0831 57.4027 67.9534C57.4056 67.7883 57.4106 67.7883 57.5082 67.9534C57.5647 68.0491 57.7322 68.1282 57.882 68.1299C58.2024 68.1336 58.3682 68.2502 58.7354 68.7304C59.138 69.2568 59.1178 69.897 58.6811 70.46C58.44 70.7708 58.2622 70.8963 58.0027 70.9391C57.4426 71.0315 57.0686 71.0025 56.7714 70.8436Z" fill="#1E1E1E"/>
<path fill-rule="evenodd" clip-rule="evenodd" d="M56.7714 70.8436C56.6194 70.7624 56.495 70.7213 56.495 70.7525C56.495 70.7836 56.4329 70.7519 56.3569 70.6819C56.2809 70.6119 56.2405 70.4987 56.2671 70.4303C56.2937 70.3619 56.2655 70.306 56.2043 70.306C56.1431 70.306 56.093 70.2391 56.093 70.1574C56.093 70.0757 56.0559 70.0088 56.0105 70.0088C55.8884 70.0088 56.0317 69.1068 56.1994 68.8201C56.5002 68.306 56.7241 68.1268 57.0654 68.1268C57.3155 68.1268 57.4004 68.0831 57.4027 67.9534C57.4056 67.7883 57.4106 67.7883 57.5082 67.9534C57.5647 68.0491 57.7322 68.1282 57.882 68.1299C58.2024 68.1336 58.3682 68.2502 58.7354 68.7304C59.138 69.2568 59.1178 69.897 58.6811 70.46C58.44 70.7708 58.2622 70.8963 58.0027 70.9391C57.4426 71.0315 57.0686 71.0025 56.7714 70.8436Z" fill="black" fill-opacity="0.2"/>
<path fill-rule="evenodd" clip-rule="evenodd" d="M54.0812 79.9283L53.6289 79.4961V78.7699C53.6289 78.0781 53.6451 78.0272 53.9708 77.6961C54.2769 77.3848 54.6465 77.2191 55.0863 77.1959C55.5208 77.173 56.2863 77.6185 56.2906 77.8967C56.2915 77.9582 56.3602 78.0639 56.4431 78.1318C56.6066 78.2655 56.6561 79.0727 56.5063 79.1639C56.4582 79.1932 56.3913 79.3529 56.3576 79.5188C56.324 79.6847 56.2164 79.8484 56.1185 79.8826C56.0206 79.9168 55.859 80.014 55.7593 80.0985C55.6597 80.183 55.3431 80.2765 55.0558 80.3063C54.5466 80.3591 54.5221 80.3497 54.0812 79.9283Z" fill="#1E1E1E"/>
<path fill-rule="evenodd" clip-rule="evenodd" d="M54.0812 79.9283L53.6289 79.4961V78.7699C53.6289 78.0781 53.6451 78.0272 53.9708 77.6961C54.2769 77.3848 54.6465 77.2191 55.0863 77.1959C55.5208 77.173 56.2863 77.6185 56.2906 77.8967C56.2915 77.9582 56.3602 78.0639 56.4431 78.1318C56.6066 78.2655 56.6561 79.0727 56.5063 79.1639C56.4582 79.1932 56.3913 79.3529 56.3576 79.5188C56.324 79.6847 56.2164 79.8484 56.1185 79.8826C56.0206 79.9168 55.859 80.014 55.7593 80.0985C55.6597 80.183 55.3431 80.2765 55.0558 80.3063C54.5466 80.3591 54.5221 80.3497 54.0812 79.9283Z" fill="black" fill-opacity="0.2"/>
<path fill-rule="evenodd" clip-rule="evenodd" d="M56.5059 88.7442C56.0856 88.33 55.93 87.8472 56.044 87.3108C56.1222 86.9425 56.7548 86.2543 57.0151 86.2543C57.1144 86.2543 57.1957 86.2097 57.1957 86.1552C57.1957 86.1007 57.3088 86.0562 57.447 86.0562C57.5852 86.0562 57.6983 86.0952 57.6983 86.1428C57.6983 86.1905 57.8366 86.2568 58.0056 86.2901C58.3326 86.3545 58.5451 86.5219 58.8283 86.9379C59.0226 87.2233 59.0811 88.3344 58.9019 88.3344C58.8452 88.3344 58.7559 88.4459 58.7033 88.5821C58.6508 88.7183 58.5444 88.8297 58.4669 88.8297C58.3893 88.8297 58.2696 88.8966 58.2008 88.9783C58.1156 89.0795 57.8874 89.1269 57.4849 89.1269C56.9332 89.1269 56.8685 89.1016 56.5059 88.7442Z" fill="#1E1E1E"/>
<path fill-rule="evenodd" clip-rule="evenodd" d="M56.5059 88.7442C56.0856 88.33 55.93 87.8472 56.044 87.3108C56.1222 86.9425 56.7548 86.2543 57.0151 86.2543C57.1144 86.2543 57.1957 86.2097 57.1957 86.1552C57.1957 86.1007 57.3088 86.0562 57.447 86.0562C57.5852 86.0562 57.6983 86.0952 57.6983 86.1428C57.6983 86.1905 57.8366 86.2568 58.0056 86.2901C58.3326 86.3545 58.5451 86.5219 58.8283 86.9379C59.0226 87.2233 59.0811 88.3344 58.9019 88.3344C58.8452 88.3344 58.7559 88.4459 58.7033 88.5821C58.6508 88.7183 58.5444 88.8297 58.4669 88.8297C58.3893 88.8297 58.2696 88.8966 58.2008 88.9783C58.1156 89.0795 57.8874 89.1269 57.4849 89.1269C56.9332 89.1269 56.8685 89.1016 56.5059 88.7442Z" fill="black" fill-opacity="0.2"/>
<path fill-rule="evenodd" clip-rule="evenodd" d="M63.3518 95.5132C62.7149 94.9335 62.5688 94.3268 62.9082 93.6707C63.2176 93.0725 63.4555 92.8901 64.0102 92.8253C64.4351 92.7757 64.583 92.8044 64.9009 92.998C65.5587 93.3987 65.6618 93.5544 65.7169 94.2304C65.7668 94.8438 65.7623 94.8576 65.373 95.2688C65.0097 95.6527 64.9274 95.6906 64.3299 95.7493C63.7071 95.8104 63.668 95.801 63.3518 95.5132Z" fill="#1E1E1E"/>
<path fill-rule="evenodd" clip-rule="evenodd" d="M63.3518 95.5132C62.7149 94.9335 62.5688 94.3268 62.9082 93.6707C63.2176 93.0725 63.4555 92.8901 64.0102 92.8253C64.4351 92.7757 64.583 92.8044 64.9009 92.998C65.5587 93.3987 65.6618 93.5544 65.7169 94.2304C65.7668 94.8438 65.7623 94.8576 65.373 95.2688C65.0097 95.6527 64.9274 95.6906 64.3299 95.7493C63.7071 95.8104 63.668 95.801 63.3518 95.5132Z" fill="black" fill-opacity="0.2"/>
<path fill-rule="evenodd" clip-rule="evenodd" d="M73.0772 98.2372C73.0772 98.1841 73.0012 98.1406 72.9084 98.1406C72.7153 98.1406 72.0721 97.488 72.0721 97.292C72.0721 97.2203 72.0269 97.1342 71.9716 97.1005C71.9163 97.0668 71.8711 96.882 71.8711 96.6899C71.8711 96.2631 72.3756 95.5257 72.7918 95.3441C72.9487 95.2756 73.0772 95.1936 73.0772 95.1619C73.0772 95.1302 73.3033 95.1499 73.5797 95.2056C73.8561 95.2614 74.0823 95.3429 74.0823 95.3866C74.0823 95.4303 74.1501 95.4661 74.233 95.4661C74.3159 95.4661 74.3838 95.5371 74.3838 95.6239C74.3838 95.7108 74.4742 95.8051 74.5848 95.8336C74.6953 95.8621 74.7858 95.9667 74.7858 96.0661C74.7858 96.1655 74.831 96.2744 74.8863 96.3081C74.9416 96.3417 74.9868 96.5703 74.9868 96.816C74.9868 97.2178 74.9402 97.3067 74.522 97.7016C74.2463 97.9619 73.9626 98.1406 73.8249 98.1406C73.6973 98.1406 73.4768 98.1841 73.335 98.2372C73.1675 98.3 73.0772 98.3 73.0772 98.2372Z" fill="#1E1E1E"/>
<path fill-rule="evenodd" clip-rule="evenodd" d="M73.0772 98.2372C73.0772 98.1841 73.0012 98.1406 72.9084 98.1406C72.7153 98.1406 72.0721 97.488 72.0721 97.292C72.0721 97.2203 72.0269 97.1342 71.9716 97.1005C71.9163 97.0668 71.8711 96.882 71.8711 96.6899C71.8711 96.2631 72.3756 95.5257 72.7918 95.3441C72.9487 95.2756 73.0772 95.1936 73.0772 95.1619C73.0772 95.1302 73.3033 95.1499 73.5797 95.2056C73.8561 95.2614 74.0823 95.3429 74.0823 95.3866C74.0823 95.4303 74.1501 95.4661 74.233 95.4661C74.3159 95.4661 74.3838 95.5371 74.3838 95.6239C74.3838 95.7108 74.4742 95.8051 74.5848 95.8336C74.6953 95.8621 74.7858 95.9667 74.7858 96.0661C74.7858 96.1655 74.831 96.2744 74.8863 96.3081C74.9416 96.3417 74.9868 96.5703 74.9868 96.816C74.9868 97.2178 74.9402 97.3067 74.522 97.7016C74.2463 97.9619 73.9626 98.1406 73.8249 98.1406C73.6973 98.1406 73.4768 98.1841 73.335 98.2372C73.1675 98.3 73.0772 98.3 73.0772 98.2372Z" fill="black" fill-opacity="0.2"/>
<path fill-rule="evenodd" clip-rule="evenodd" d="M81.9226 95.6956C81.7844 95.6678 81.6351 95.5824 81.5909 95.5059C81.5467 95.4295 81.4563 95.3669 81.3899 95.3668C81.3236 95.3668 81.2621 95.2456 81.2534 95.0975C81.2447 94.9493 81.1881 94.8119 81.1278 94.7921C80.9672 94.7394 80.9998 93.9627 81.172 93.7383C81.2531 93.6326 81.3205 93.4765 81.3217 93.3916C81.3229 93.3067 81.4925 93.1258 81.6986 92.9896C82.0024 92.7888 82.1733 92.7476 82.6015 92.7719C83.0832 92.7992 83.1731 92.8447 83.6244 93.2894C84.3331 93.9879 84.3675 94.5865 83.7391 95.2844C83.3884 95.6739 83.3312 95.6997 82.7701 95.7223C82.4422 95.7355 82.0608 95.7235 81.9226 95.6956Z" fill="#1E1E1E"/>
<path fill-rule="evenodd" clip-rule="evenodd" d="M81.9226 95.6956C81.7844 95.6678 81.6351 95.5824 81.5909 95.5059C81.5467 95.4295 81.4563 95.3669 81.3899 95.3668C81.3236 95.3668 81.2621 95.2456 81.2534 95.0975C81.2447 94.9493 81.1881 94.8119 81.1278 94.7921C80.9672 94.7394 80.9998 93.9627 81.172 93.7383C81.2531 93.6326 81.3205 93.4765 81.3217 93.3916C81.3229 93.3067 81.4925 93.1258 81.6986 92.9896C82.0024 92.7888 82.1733 92.7476 82.6015 92.7719C83.0832 92.7992 83.1731 92.8447 83.6244 93.2894C84.3331 93.9879 84.3675 94.5865 83.7391 95.2844C83.3884 95.6739 83.3312 95.6997 82.7701 95.7223C82.4422 95.7355 82.0608 95.7235 81.9226 95.6956Z" fill="black" fill-opacity="0.2"/>
<path fill-rule="evenodd" clip-rule="evenodd" d="M88.7576 89.032C88.7576 88.98 88.5997 88.9083 88.4067 88.8726C88.2137 88.8369 88.0799 88.7693 88.1094 88.7223C88.1388 88.6754 88.0879 88.5241 87.9963 88.3863C87.872 88.1994 87.8399 87.9775 87.8698 87.5135C87.9041 86.9825 87.9553 86.8447 88.2191 86.5727C88.389 86.3974 88.5997 86.254 88.6872 86.254C88.7747 86.254 88.8742 86.2094 88.9084 86.155C88.9852 86.0324 89.5617 86.0227 89.5617 86.1439C89.5617 86.1923 89.72 86.2612 89.9134 86.297C90.1069 86.3328 90.2652 86.4106 90.2652 86.47C90.2652 86.5294 90.382 86.6846 90.5247 86.815C90.7463 87.0174 90.7852 87.1392 90.7912 87.6493C90.7981 88.2359 90.7897 88.2545 90.3256 88.6866C89.8854 89.0964 89.8154 89.1266 89.3053 89.1266C89.0041 89.1266 88.7576 89.0841 88.7576 89.032Z" fill="#1E1E1E"/>
<path fill-rule="evenodd" clip-rule="evenodd" d="M88.7576 89.032C88.7576 88.98 88.5997 88.9083 88.4067 88.8726C88.2137 88.8369 88.0799 88.7693 88.1094 88.7223C88.1388 88.6754 88.0879 88.5241 87.9963 88.3863C87.872 88.1994 87.8399 87.9775 87.8698 87.5135C87.9041 86.9825 87.9553 86.8447 88.2191 86.5727C88.389 86.3974 88.5997 86.254 88.6872 86.254C88.7747 86.254 88.8742 86.2094 88.9084 86.155C88.9852 86.0324 89.5617 86.0227 89.5617 86.1439C89.5617 86.1923 89.72 86.2612 89.9134 86.297C90.1069 86.3328 90.2652 86.4106 90.2652 86.47C90.2652 86.5294 90.382 86.6846 90.5247 86.815C90.7463 87.0174 90.7852 87.1392 90.7912 87.6493C90.7981 88.2359 90.7897 88.2545 90.3256 88.6866C89.8854 89.0964 89.8154 89.1266 89.3053 89.1266C89.0041 89.1266 88.7576 89.0841 88.7576 89.032Z" fill="black" fill-opacity="0.2"/>
<path fill-rule="evenodd" clip-rule="evenodd" d="M91.3673 79.8818C91.2277 79.81 91.0518 79.7714 90.9764 79.7962C90.8991 79.8216 90.8678 79.7959 90.9046 79.7373C90.9404 79.6801 90.8918 79.5566 90.7966 79.4627C90.6577 79.3258 90.6277 79.1379 90.6451 78.5135C90.6682 77.6839 90.7205 77.5812 91.3117 77.203C91.6247 77.0029 92.4971 76.9572 92.5582 77.1379C92.5772 77.1941 92.6468 77.2401 92.7128 77.2401C92.9173 77.2401 93.1755 77.6195 93.304 78.1091C93.3717 78.3666 93.473 78.6101 93.5292 78.6501C93.5939 78.6962 93.5859 78.7234 93.5072 78.7244C93.4389 78.7253 93.3333 78.9204 93.2726 79.1581C93.1843 79.5037 93.0856 79.6327 92.78 79.802C92.3477 80.0414 91.744 80.0755 91.3673 79.8818Z" fill="#1E1E1E"/>
<path fill-rule="evenodd" clip-rule="evenodd" d="M91.3673 79.8818C91.2277 79.81 91.0518 79.7714 90.9764 79.7962C90.8991 79.8216 90.8678 79.7959 90.9046 79.7373C90.9404 79.6801 90.8918 79.5566 90.7966 79.4627C90.6577 79.3258 90.6277 79.1379 90.6451 78.5135C90.6682 77.6839 90.7205 77.5812 91.3117 77.203C91.6247 77.0029 92.4971 76.9572 92.5582 77.1379C92.5772 77.1941 92.6468 77.2401 92.7128 77.2401C92.9173 77.2401 93.1755 77.6195 93.304 78.1091C93.3717 78.3666 93.473 78.6101 93.5292 78.6501C93.5939 78.6962 93.5859 78.7234 93.5072 78.7244C93.4389 78.7253 93.3333 78.9204 93.2726 79.1581C93.1843 79.5037 93.0856 79.6327 92.78 79.802C92.3477 80.0414 91.744 80.0755 91.3673 79.8818Z" fill="black" fill-opacity="0.2"/>
<path fill-rule="evenodd" clip-rule="evenodd" d="M88.9976 71.0167C89.0458 70.9397 88.9838 70.9008 88.8131 70.9008C88.6716 70.9008 88.5559 70.8562 88.5559 70.8017C88.5559 70.7472 88.4981 70.7027 88.4274 70.7027C88.2248 70.7027 87.9556 70.3325 87.8662 69.9311C87.8212 69.7289 87.7318 69.5747 87.6676 69.5883C87.6033 69.6019 87.5508 69.5476 87.5508 69.4676C87.5508 69.3856 87.6105 69.3447 87.6876 69.3738C87.7844 69.4104 87.8402 69.3095 87.8784 69.0286C87.9375 68.5943 88.3489 68.1272 88.6724 68.1272C88.7756 68.1272 88.9461 68.0743 89.0513 68.0096C89.2012 67.9173 89.3362 67.9224 89.677 68.0332C90.1379 68.1831 90.3093 68.3162 90.589 68.7413C90.7761 69.0256 90.8604 69.984 90.7079 70.0926C90.6575 70.1285 90.5672 70.2453 90.5072 70.3521C90.3849 70.5703 89.9471 70.8347 89.5451 70.9334C89.3983 70.9695 89.1986 71.029 89.1015 71.0658C88.9809 71.1114 88.9479 71.0958 88.9976 71.0167Z" fill="#1E1E1E"/>
<path fill-rule="evenodd" clip-rule="evenodd" d="M88.9976 71.0167C89.0458 70.9397 88.9838 70.9008 88.8131 70.9008C88.6716 70.9008 88.5559 70.8562 88.5559 70.8017C88.5559 70.7472 88.4981 70.7027 88.4274 70.7027C88.2248 70.7027 87.9556 70.3325 87.8662 69.9311C87.8212 69.7289 87.7318 69.5747 87.6676 69.5883C87.6033 69.6019 87.5508 69.5476 87.5508 69.4676C87.5508 69.3856 87.6105 69.3447 87.6876 69.3738C87.7844 69.4104 87.8402 69.3095 87.8784 69.0286C87.9375 68.5943 88.3489 68.1272 88.6724 68.1272C88.7756 68.1272 88.9461 68.0743 89.0513 68.0096C89.2012 67.9173 89.3362 67.9224 89.677 68.0332C90.1379 68.1831 90.3093 68.3162 90.589 68.7413C90.7761 69.0256 90.8604 69.984 90.7079 70.0926C90.6575 70.1285 90.5672 70.2453 90.5072 70.3521C90.3849 70.5703 89.9471 70.8347 89.5451 70.9334C89.3983 70.9695 89.1986 71.029 89.1015 71.0658C88.9809 71.1114 88.9479 71.0958 88.9976 71.0167Z" fill="black" fill-opacity="0.2"/>
<path d="M64.3342 64.4361C65.2566 64.4361 66.0043 63.7462 66.0043 62.8952C66.0043 62.0441 65.2566 61.3542 64.3342 61.3542C63.4118 61.3542 62.6641 62.0441 62.6641 62.8952C62.6641 63.7462 63.4118 64.4361 64.3342 64.4361Z" fill="#1E1E1E"/>
<path d="M64.3342 64.4361C65.2566 64.4361 66.0043 63.7462 66.0043 62.8952C66.0043 62.0441 65.2566 61.3542 64.3342 61.3542C63.4118 61.3542 62.6641 62.0441 62.6641 62.8952C62.6641 63.7462 63.4118 64.4361 64.3342 64.4361Z" fill="black" fill-opacity="0.2"/>
<path d="M57.5139 71.0899C58.4363 71.0899 59.184 70.4 59.184 69.549C59.184 68.698 58.4363 68.0081 57.5139 68.0081C56.5915 68.0081 55.8438 68.698 55.8438 69.549C55.8438 70.4 56.5915 71.0899 57.5139 71.0899Z" fill="#1E1E1E"/>
<path d="M57.5139 71.0899C58.4363 71.0899 59.184 70.4 59.184 69.549C59.184 68.698 58.4363 68.0081 57.5139 68.0081C56.5915 68.0081 55.8438 68.698 55.8438 69.549C55.8438 70.4 56.5915 71.0899 57.5139 71.0899Z" fill="black" fill-opacity="0.2"/>
<path d="M55.0256 80.4054C55.948 80.4054 56.6957 79.7155 56.6957 78.8644C56.6957 78.0134 55.948 77.3235 55.0256 77.3235C54.1032 77.3235 53.3555 78.0134 53.3555 78.8644C53.3555 79.7155 54.1032 80.4054 55.0256 80.4054Z" fill="#1E1E1E"/>
<path d="M55.0256 80.4054C55.948 80.4054 56.6957 79.7155 56.6957 78.8644C56.6957 78.0134 55.948 77.3235 55.0256 77.3235C54.1032 77.3235 53.3555 78.0134 53.3555 78.8644C53.3555 79.7155 54.1032 80.4054 55.0256 80.4054Z" fill="black" fill-opacity="0.2"/>
<path d="M57.5803 89.161C58.5027 89.161 59.2504 88.4711 59.2504 87.62C59.2504 86.769 58.5027 86.0791 57.5803 86.0791C56.6579 86.0791 55.9102 86.769 55.9102 87.62C55.9102 88.4711 56.6579 89.161 57.5803 89.161Z" fill="#1E1E1E"/>
<path d="M57.5803 89.161C58.5027 89.161 59.2504 88.4711 59.2504 87.62C59.2504 86.769 58.5027 86.0791 57.5803 86.0791C56.6579 86.0791 55.9102 86.769 55.9102 87.62C55.9102 88.4711 56.6579 89.161 57.5803 89.161Z" fill="black" fill-opacity="0.2"/>
<path d="M64.3342 95.9554C65.2566 95.9554 66.0043 95.2655 66.0043 94.4145C66.0043 93.5634 65.2566 92.8735 64.3342 92.8735C63.4118 92.8735 62.6641 93.5634 62.6641 94.4145C62.6641 95.2655 63.4118 95.9554 64.3342 95.9554Z" fill="#1E1E1E"/>
<path d="M64.3342 95.9554C65.2566 95.9554 66.0043 95.2655 66.0043 94.4145C66.0043 93.5634 65.2566 92.8735 64.3342 92.8735C63.4118 92.8735 62.6641 93.5634 62.6641 94.4145C62.6641 95.2655 63.4118 95.9554 64.3342 95.9554Z" fill="black" fill-opacity="0.2"/>
<path d="M73.3576 98.2662C74.28 98.2662 75.0278 97.5763 75.0278 96.7253C75.0278 95.8742 74.28 95.1843 73.3576 95.1843C72.4352 95.1843 71.6875 95.8742 71.6875 96.7253C71.6875 97.5763 72.4352 98.2662 73.3576 98.2662Z" fill="#1E1E1E"/>
<path d="M73.3576 98.2662C74.28 98.2662 75.0278 97.5763 75.0278 96.7253C75.0278 95.8742 74.28 95.1843 73.3576 95.1843C72.4352 95.1843 71.6875 95.8742 71.6875 96.7253C71.6875 97.5763 72.4352 98.2662 73.3576 98.2662Z" fill="black" fill-opacity="0.2"/>
<path d="M82.5998 95.7447C83.5222 95.7447 84.27 95.0548 84.27 94.2038C84.27 93.3527 83.5222 92.6628 82.5998 92.6628C81.6774 92.6628 80.9297 93.3527 80.9297 94.2038C80.9297 95.0548 81.6774 95.7447 82.5998 95.7447Z" fill="#1E1E1E"/>
<path d="M82.5998 95.7447C83.5222 95.7447 84.27 95.0548 84.27 94.2038C84.27 93.3527 83.5222 92.6628 82.5998 92.6628C81.6774 92.6628 80.9297 93.3527 80.9297 94.2038C80.9297 95.0548 81.6774 95.7447 82.5998 95.7447Z" fill="black" fill-opacity="0.2"/>
<path d="M89.4904 89.161C90.4128 89.161 91.1606 88.4711 91.1606 87.62C91.1606 86.769 90.4128 86.0791 89.4904 86.0791C88.5681 86.0791 87.8203 86.769 87.8203 87.62C87.8203 88.4711 88.5681 89.161 89.4904 89.161Z" fill="#1E1E1E"/>
<path d="M89.4904 89.161C90.4128 89.161 91.1606 88.4711 91.1606 87.62C91.1606 86.769 90.4128 86.0791 89.4904 86.0791C88.5681 86.0791 87.8203 86.769 87.8203 87.62C87.8203 88.4711 88.5681 89.161 89.4904 89.161Z" fill="black" fill-opacity="0.2"/>
<path d="M92.1194 80.0555C93.0417 80.0555 93.7895 79.3656 93.7895 78.5146C93.7895 77.6635 93.0417 76.9736 92.1194 76.9736C91.197 76.9736 90.4492 77.6635 90.4492 78.5146C90.4492 79.3656 91.197 80.0555 92.1194 80.0555Z" fill="#1E1E1E"/>
<path d="M92.1194 80.0555C93.0417 80.0555 93.7895 79.3656 93.7895 78.5146C93.7895 77.6635 93.0417 76.9736 92.1194 76.9736C91.197 76.9736 90.4492 77.6635 90.4492 78.5146C90.4492 79.3656 91.197 80.0555 92.1194 80.0555Z" fill="black" fill-opacity="0.2"/>
<path d="M89.2795 70.9498C90.2019 70.9498 90.9496 70.2599 90.9496 69.4089C90.9496 68.5578 90.2019 67.8679 89.2795 67.8679C88.3571 67.8679 87.6094 68.5578 87.6094 69.4089C87.6094 70.2599 88.3571 70.9498 89.2795 70.9498Z" fill="#1E1E1E"/>
<path d="M89.2795 70.9498C90.2019 70.9498 90.9496 70.2599 90.9496 69.4089C90.9496 68.5578 90.2019 67.8679 89.2795 67.8679C88.3571 67.8679 87.6094 68.5578 87.6094 69.4089C87.6094 70.2599 88.3571 70.9498 89.2795 70.9498Z" fill="black" fill-opacity="0.2"/>
<path d="M82.5256 64.3661C83.448 64.3661 84.1957 63.6762 84.1957 62.8251C84.1957 61.9741 83.448 61.2842 82.5256 61.2842C81.6032 61.2842 80.8555 61.9741 80.8555 62.8251C80.8555 63.6762 81.6032 64.3661 82.5256 64.3661Z" fill="#1E1E1E"/>
<path d="M82.5256 64.3661C83.448 64.3661 84.1957 63.6762 84.1957 62.8251C84.1957 61.9741 83.448 61.2842 82.5256 61.2842C81.6032 61.2842 80.8555 61.9741 80.8555 62.8251C80.8555 63.6762 81.6032 64.3661 82.5256 64.3661Z" fill="black" fill-opacity="0.2"/>
<path d="M73.3576 61.9144C74.28 61.9144 75.0278 61.2245 75.0278 60.3735C75.0278 59.5224 74.28 58.8325 73.3576 58.8325C72.4352 58.8325 71.6875 59.5224 71.6875 60.3735C71.6875 61.2245 72.4352 61.9144 73.3576 61.9144Z" fill="#1E1E1E"/>
<path d="M73.3576 61.9144C74.28 61.9144 75.0278 61.2245 75.0278 60.3735C75.0278 59.5224 74.28 58.8325 73.3576 58.8325C72.4352 58.8325 71.6875 59.5224 71.6875 60.3735C71.6875 61.2245 72.4352 61.9144 73.3576 61.9144Z" fill="black" fill-opacity="0.2"/>
<path d="M75.2425 69.3621C75.2425 67.9181 74.4152 66.7476 73.3947 66.7476C72.3742 66.7476 71.5469 67.9181 71.5469 69.3621V80.383C71.5469 81.8269 72.3742 82.9975 73.3947 82.9975C74.4152 82.9975 75.2425 81.8269 75.2425 80.383V69.3621Z" fill="#1E1E1E"/>
<path d="M75.2425 69.3621C75.2425 67.9181 74.4152 66.7476 73.3947 66.7476C72.3742 66.7476 71.5469 67.9181 71.5469 69.3621V80.383C71.5469 81.8269 72.3742 82.9975 73.3947 82.9975C74.4152 82.9975 75.2425 81.8269 75.2425 80.383V69.3621Z" fill="black" fill-opacity="0.2"/>
<path d="M82.8098 82.577C84.4401 82.577 85.7617 81.7617 85.7617 80.7559C85.7617 79.7502 84.4401 78.9348 82.8098 78.9348H74.784C73.1537 78.9348 71.8321 79.7502 71.8321 80.7559C71.8321 81.7617 73.1537 82.577 74.784 82.577H82.8098Z" fill="#1E1E1E"/>
<path d="M82.8098 82.577C84.4401 82.577 85.7617 81.7617 85.7617 80.7559C85.7617 79.7502 84.4401 78.9348 82.8098 78.9348H74.784C73.1537 78.9348 71.8321 79.7502 71.8321 80.7559C71.8321 81.7617 73.1537 82.577 74.784 82.577H82.8098Z" fill="black" fill-opacity="0.2"/>
<path d="M71.5828 82.367C73.4472 82.367 74.9586 81.63 74.9586 80.721C74.9586 79.8119 73.4472 79.075 71.5828 79.075C69.7184 79.075 68.207 79.8119 68.207 80.721C68.207 81.63 69.7184 82.367 71.5828 82.367Z" fill="#1E1E1E"/>
<path d="M71.5828 82.367C73.4472 82.367 74.9586 81.63 74.9586 80.721C74.9586 79.8119 73.4472 79.075 71.5828 79.075C69.7184 79.075 68.207 79.8119 68.207 80.721C68.207 81.63 69.7184 82.367 71.5828 82.367Z" fill="black" fill-opacity="0.2"/>
<path d="M75.0308 79.8396C75.0308 78.0634 74.2194 76.6235 73.2185 76.6235C72.2176 76.6235 71.4062 78.0634 71.4062 79.8396V83.1434C71.4062 84.9196 72.2176 86.3595 73.2185 86.3595C74.2194 86.3595 75.0308 84.9196 75.0308 83.1434V79.8396Z" fill="#1E1E1E"/>
<path d="M75.0308 79.8396C75.0308 78.0634 74.2194 76.6235 73.2185 76.6235C72.2176 76.6235 71.4062 78.0634 71.4062 79.8396V83.1434C71.4062 84.9196 72.2176 86.3595 73.2185 86.3595C74.2194 86.3595 75.0308 84.9196 75.0308 83.1434V79.8396Z" fill="black" fill-opacity="0.2"/>
</svg>
