<svg width="34" height="35" viewBox="0 0 34 35" fill="none" xmlns="http://www.w3.org/2000/svg">
<g clip-path="url(#clip0_4191_3983)">
<path fill-rule="evenodd" clip-rule="evenodd" d="M22.0024 12.5962C22.0024 13.9905 21.4634 15.3278 20.5039 16.3137C19.5443 17.2996 18.2429 17.8535 16.886 17.8535C15.529 17.8535 14.2276 17.2996 13.2681 16.3137C12.3086 15.3278 11.7695 13.9905 11.7695 12.5962C11.7695 11.2019 12.3086 9.86465 13.2681 8.87871C14.2276 7.89276 15.529 7.33887 16.886 7.33887C18.2429 7.33887 19.5443 7.89276 20.5039 8.87871C21.4634 9.86465 22.0024 11.2019 22.0024 12.5962ZM20.2906 21.0624H13.4824C12.4741 21.0622 11.4757 21.2662 10.5441 21.6625C9.61256 22.0588 8.76608 22.6398 8.05303 23.3723C7.33998 24.1048 6.77432 24.9744 6.38834 25.9315C6.00237 26.8887 5.80364 27.9145 5.8035 28.9506H27.9663C27.9663 26.8587 27.1577 24.8524 25.7182 23.3732C24.2788 21.8939 22.3264 21.0627 20.2906 21.0624Z" stroke="white"/>
</g>
<defs>
<clipPath id="clip0_4191_3983">
<rect width="33.772" height="34.7019" fill="white" transform="translate(0 0.290039)"/>
</clipPath>
</defs>
</svg>
